<svg id="Layer_2" data-name="Layer 2" xmlns="http://www.w3.org/2000/svg" viewBox="0 0 220.43 69.16"><defs><style>.cls-1{fill:#fff;}</style></defs><path class="cls-1" d="M93.92,11.4c-.65,1.08-.57,2.62-.57,4a97.39,97.39,0,0,0,.23,10.39,9.9,9.9,0,0,0,.88,3.73H90.28a17,17,0,0,0,.51-5.12V15c0-.29,0-.63-.2-.63s-.28.2-.37.43L83.84,29.84l-5.4-14c-.32-.83-.51-1.51-.77-1.51s-.26.51-.26.94l0,9.25c0,2.22,0,4.07.63,5H74.62l.26-.37c1.05-1.51,1.17-6,1.17-9.08V13c0-.76,0-1.16-.71-1.59h3.52c.35,0,.77.06.89.43L84,24.24c.14.42.23.91.45.91s.35-.29.52-.69L89.85,12.6c.26-.6.46-1.2,1.17-1.2Z"/><path class="cls-1" d="M99.86,28.42h3.27a7.29,7.29,0,0,0,4.92-1.62l-.51,2.62c-.77,0-1.7.14-2.73.14H96.59a7.32,7.32,0,0,0,.71-3.73V15.13a7.2,7.2,0,0,0-.63-3.73h9.93l.12,2.19a6.51,6.51,0,0,0-4.21-1.05H99.86v6.8c2.19,0,4.5,0,6.69-.2-1,1.62-4.22,1.62-6,1.62h-.71Z"/><path class="cls-1" d="M113.85,29.56a7.2,7.2,0,0,0,.63-3.73v-13H110.7a3.1,3.1,0,0,0-2,.63l.57-2h14.32c-.48,1.22-2.22,1.42-3.39,1.42H117v13a7.2,7.2,0,0,0,.63,3.73Z"/><path class="cls-1" d="M136.89,15.13a7.65,7.65,0,0,0-.65-3.73h3.87a7.54,7.54,0,0,0-.66,3.73v10.7a7.54,7.54,0,0,0,.66,3.73h-3.87a7.65,7.65,0,0,0,.65-3.73V20.34h-8.42v5.49a7.53,7.53,0,0,0,.65,3.73h-3.87a7.53,7.53,0,0,0,.65-3.73V15.13a7.53,7.53,0,0,0-.65-3.73h3.87a7.53,7.53,0,0,0-.65,3.73V19.2h8.42Z"/><path class="cls-1" d="M150.83,30c-6,0-8.6-4.1-8.6-9.16,0-5.41,3.13-9.91,9.05-9.91s8.6,4.1,8.6,9.17c0,5.41-3.13,9.9-9,9.9m.22-17.81c-4.09,0-5.86,3.75-5.86,7.85,0,3.76,1.28,8.71,5.86,8.71,4.1,0,5.87-3.76,5.87-7.85,0-3.76-1.28-8.71-5.87-8.71"/><path class="cls-1" d="M162.35,15.13a7.2,7.2,0,0,0-.63-3.73c2.88,0,5.75-.29,8.65-.29,4.76,0,8,3.59,8,8.69,0,6.34-4.38,9.87-9.79,9.87-2.87,0-4.87-.11-6.86-.11a7.2,7.2,0,0,0,.63-3.73Zm2.56,11.24c0,2.05.57,2.16,3.64,2.16,5.07,0,6.86-3.58,6.86-8.25,0-4.92-2.67-8-7.77-8a16.56,16.56,0,0,0-2.7.23c0,.43,0,.88,0,1.34Z"/><path class="cls-1" d="M181.65,15.13A7.31,7.31,0,0,0,181,11.4h3.81a7.2,7.2,0,0,0-.63,3.73v10.7a7.2,7.2,0,0,0,.63,3.73H181a7.31,7.31,0,0,0,.62-3.73Z"/><path class="cls-1" d="M186.88,26A5.68,5.68,0,0,0,192,28.88a3.46,3.46,0,0,0,3.78-3.56c0-4.78-8.14-4.19-8.14-9.45,0-3.3,2.71-4.92,5.72-4.92,1.48,0,2.94.17,4.39.17v2.64a4.47,4.47,0,0,0-4-1.68c-2,0-3.47,1-3.47,3.13,0,4.39,8.14,3.85,8.14,9.28C198.41,28,195,30,191.78,30a15.33,15.33,0,0,1-4.9-1Z"/><path class="cls-1" d="M204.86,29.56a7.2,7.2,0,0,0,.63-3.73v-13H201.7a3.09,3.09,0,0,0-2,.63l.57-2h14.32c-.49,1.22-2.22,1.42-3.39,1.42h-3.13v13a7.2,7.2,0,0,0,.63,3.73Z"/><path class="cls-1" d="M80.49,36.89h0a2,2,0,0,0-2.06-1.15c-2,0-2.81,1.65-2.81,3.47,0,2,1,3.57,3.13,3.57a3,3,0,0,0,2.21-.88V42c0,.58-.92,1.78-2.92,1.78-2.33,0-3.76-1.84-3.75-4.18,0-2.62,1.55-4.39,4.15-4.39.74,0,1.28.1,2.14.1Z"/><path class="cls-1" d="M85.56,43.75c-2.69,0-3.87-1.84-3.87-4.12,0-2.43,1.41-4.45,4.07-4.45S89.63,37,89.63,39.3c0,2.43-1.41,4.45-4.07,4.45m.1-8c-1.84,0-2.64,1.69-2.64,3.53,0,1.69.58,3.92,2.64,3.92,1.84,0,2.64-1.69,2.64-3.53,0-1.69-.58-3.92-2.64-3.92"/><path class="cls-1" d="M91.15,37.06a3.28,3.28,0,0,0-.28-1.68h1.72a3.28,3.28,0,0,0-.28,1.68v6h1a2.62,2.62,0,0,0,2-.73L95,43.51c-.25,0-.52,0-.78,0H90.72a7.46,7.46,0,0,0,.43-2.91Z"/><path class="cls-1" d="M96.62,37.06a3.18,3.18,0,0,0-.29-1.68h1.72a3.28,3.28,0,0,0-.28,1.68v6h1a2.61,2.61,0,0,0,2-.73l-.24,1.2c-.26,0-.53,0-.78,0H96.18a7.28,7.28,0,0,0,.44-2.91Z"/><path class="cls-1" d="M103.1,43h1.47a3.31,3.31,0,0,0,2.21-.73l-.23,1.17c-.34,0-.76.07-1.22.07h-3.7a3.29,3.29,0,0,0,.32-1.68V37.06a3.28,3.28,0,0,0-.28-1.68h4.46l.05,1a2.93,2.93,0,0,0-1.89-.47H103.1V39c1,0,2,0,3-.09-.45.73-1.9.73-2.69.73h-.32Z"/><path class="cls-1" d="M114.49,36.7a3.76,3.76,0,0,0-2.58-1c-2,0-3.14,1.68-3.14,3.55,0,2.36,1.13,3.9,3.6,3.9a6,6,0,0,0,.95-.09,4.89,4.89,0,0,0,.12-1.32v-.63a3.24,3.24,0,0,0-.28-1.67h1.72a3.24,3.24,0,0,0-.28,1.67v1.29a6.83,6.83,0,0,0,.09,1.11,18.15,18.15,0,0,1-2.73.2c-2.7,0-4.52-1.19-4.52-4.07,0-3.09,2.25-4.5,5.12-4.5.64,0,1.28.09,1.93.14Z"/><path class="cls-1" d="M117.6,43h1.47a3.32,3.32,0,0,0,2.22-.73l-.23,1.17c-.35,0-.77.07-1.23.07h-3.7a3.29,3.29,0,0,0,.32-1.68V37.06a3.28,3.28,0,0,0-.28-1.68h4.47l0,1a3,3,0,0,0-1.9-.47H117.6V39c1,0,2,0,3-.09-.45.73-1.89.73-2.69.73h-.32Z"/><path class="cls-1" d="M129.45,37.06a3.18,3.18,0,0,0-.29-1.68h1.72a3.28,3.28,0,0,0-.28,1.68v2c.6-.12,1.37-1,2-1.8s1.14-1.33,1.14-1.63a.86.86,0,0,0,0-.25h1.59a18.13,18.13,0,0,0-1.65,1.53l-2,2.15,2.12,3A18.69,18.69,0,0,0,135,43.55h-1.35c-.23,0-.34-.14-.49-.35l-2.3-3.48c-.05-.09-.14-.2-.19-.2s-.05.06-.05.11v2.24a3.28,3.28,0,0,0,.28,1.68h-1.72a3.18,3.18,0,0,0,.29-1.68Z"/><path class="cls-1" d="M143,35.38a3.36,3.36,0,0,0-.28,1.69v4.82a3.19,3.19,0,0,0,.28,1.66l-1.52.08,0-.85s0-.05-.06-.05-.08.08-.16.14a3.68,3.68,0,0,1-2.47.88c-1.48,0-2.47-.6-2.5-2.17V37.07a3.26,3.26,0,0,0-.29-1.69h1.72a3.36,3.36,0,0,0-.28,1.69v3.74c0,1.37.6,2.2,2,2.2s2-.93,2-2.46c0-.48.05-1,.05-1.47v-2a3.36,3.36,0,0,0-.28-1.69Z"/><path class="cls-1" d="M150.68,43.55,149.28,40H146.4a9.34,9.34,0,0,0-1.12,3.1,2.7,2.7,0,0,0,0,.49h-1.6l.28-.36c.73-.92,3.37-6.41,3.37-7.46v-.35h1.51a45.43,45.43,0,0,0,2.92,7.69l.25.48Zm-2.51-6.84c0-.09-.1-.3-.22-.3s-.19.24-.21.3l-1.12,2.74h2.45Z"/><path class="cls-1" d="M153.36,37.06a3.28,3.28,0,0,0-.28-1.68h1.72a3.18,3.18,0,0,0-.29,1.68v6h1a2.62,2.62,0,0,0,2-.73l-.25,1.2c-.25,0-.52,0-.78,0h-3.54a7.46,7.46,0,0,0,.43-2.91Z"/><path class="cls-1" d="M164.77,43.55,163.38,40H160.5a9.39,9.39,0,0,0-1.13,3.1,4,4,0,0,0,0,.49h-1.6l.28-.36c.73-.92,3.37-6.41,3.37-7.46v-.35H163a45.43,45.43,0,0,0,2.92,7.69l.26.48Zm-2.51-6.84c0-.09-.1-.3-.21-.3s-.2.24-.22.3l-1.11,2.74h2.44Z"/><path class="cls-1" d="M170.65,37.06a3.28,3.28,0,0,0-.28-1.68h1.72a3.28,3.28,0,0,0-.28,1.68v6h1a2.61,2.61,0,0,0,2-.73l-.25,1.2c-.25,0-.52,0-.78,0h-3.54a7.46,7.46,0,0,0,.43-2.91Z"/><path class="cls-1" d="M182.54,35.38a3.36,3.36,0,0,0-.28,1.69v4.82a3.19,3.19,0,0,0,.28,1.66l-1.52.08,0-.85s0-.05-.06-.05-.08.08-.16.14a3.65,3.65,0,0,1-2.46.88c-1.49,0-2.47-.6-2.51-2.17V37.07a3.26,3.26,0,0,0-.29-1.69h1.72a3.36,3.36,0,0,0-.28,1.69v3.74c0,1.37.6,2.2,2.05,2.2s1.94-.93,2-2.46c0-.48.05-1,.05-1.47v-2a3.36,3.36,0,0,0-.28-1.69Z"/><path class="cls-1" d="M192.37,35.38a3.59,3.59,0,0,0-.26,1.82,45.44,45.44,0,0,0,.1,4.67,4.55,4.55,0,0,0,.4,1.68h-1.88a7.63,7.63,0,0,0,.23-2.31V37c0-.13,0-.29-.09-.29s-.13.09-.17.2l-2.86,6.77-2.44-6.29c-.14-.37-.23-.68-.34-.68s-.12.24-.12.43V41.3a4.84,4.84,0,0,0,.28,2.25h-1.52l.11-.17c.48-.68.53-2.7.53-4.08V36.1c0-.34,0-.53-.32-.72h1.59c.15,0,.34,0,.39.19l1.9,5.59c.06.19.1.41.2.41s.16-.13.23-.31l2.22-5.34c.11-.27.2-.54.52-.54Z"/><path class="cls-1" d="M194.05,37.06a3.28,3.28,0,0,0-.28-1.68c1,0,2-.12,3-.12,1.62,0,2.38.89,2.38,2.14A2.36,2.36,0,0,1,196.73,40a1.6,1.6,0,0,1-1.11-.29c1-.12,2.21-.29,2.21-2.15,0-1-.3-1.76-1.6-1.76h-1v6.1a3.23,3.23,0,0,0,.33,1.68h-1.77a3.2,3.2,0,0,0,.28-1.68Z"/><path class="cls-1" d="M207.05,35.38a3.26,3.26,0,0,0-.29,1.69v4.82a3.09,3.09,0,0,0,.29,1.66l-1.53.08.06-.85s0-.05-.07-.05-.08.08-.15.14a3.7,3.7,0,0,1-2.47.88c-1.49,0-2.47-.6-2.51-2.17V37.07a3.36,3.36,0,0,0-.28-1.69h1.71a3.36,3.36,0,0,0-.28,1.69v3.74c0,1.37.6,2.2,2.05,2.2s1.94-.93,2-2.46c0-.48.05-1,.05-1.47v-2a3.36,3.36,0,0,0-.28-1.69Z"/><path class="cls-1" d="M213.87,42.36A6.88,6.88,0,0,0,215,43.55h-1c-.55,0-.79-.3-1.08-.71l-1.56-2.22c-.54-.77-.63-1-1.37-1v2.3a3.28,3.28,0,0,0,.28,1.68h-1.78a3,3,0,0,0,.35-1.75V37.06a3.28,3.28,0,0,0-.28-1.68c1.07,0,2.1-.12,3.1-.12,1.3,0,2,.71,2,1.71a2.67,2.67,0,0,1-1.89,2.32Zm-4-3.29a3.77,3.77,0,0,0,.58,0,1.71,1.71,0,0,0,1.92-1.88c0-1.28-.73-1.44-1.87-1.46h-.6a6.08,6.08,0,0,0,0,.61Z"/><path class="cls-1" d="M76.27,59.81c.09-.07.42-.41,1-1s1.08-1.21,1.56-1.8a12,12,0,0,0,.86-1.16,1.13,1.13,0,0,0,.15-.53c0-.32-.2-.5-.61-.52-.13,0-.2,0-.2-.1s.06-.11.18-.11h.46l.81,0h1.22c.12,0,.18,0,.18.1s-.09.09-.26.13a1.87,1.87,0,0,0-.88.38,31.29,31.29,0,0,0-2.29,2.6c-.47.57-1.19,1.35-2.13,2.35-.47.49-.8.85-1,1.07s-.3.32-.38.32a.06.06,0,0,1-.07-.07.54.54,0,0,1,0-.2,50.48,50.48,0,0,0,1.29-5.73A.63.63,0,0,0,76,55a.86.86,0,0,0-.61-.19c-.08,0-.12,0-.12-.1s.07-.11.23-.11l1.16,0c.34,0,.72,0,1.13-.06l.5,0c.07,0,.11,0,.11.09s-.05.1-.14.11a1.28,1.28,0,0,0-.63.16,1.13,1.13,0,0,0-.32.52,16.59,16.59,0,0,0-.45,1.64c-.2.83-.39,1.73-.59,2.71"/><path class="cls-1" d="M83.82,59.5a4.84,4.84,0,0,0-.17,1.09.67.67,0,0,0,.13.41.39.39,0,0,0,.34.18,1.18,1.18,0,0,0,.67-.26,2.37,2.37,0,0,0,.59-.63c.08-.12.15-.18.22-.18s.1,0,.1.09-.2.43-.58.76a1.82,1.82,0,0,1-1.2.49.94.94,0,0,1-.76-.35,1.32,1.32,0,0,1-.27-.82,3.85,3.85,0,0,1,.9-2.21c.61-.8,1.2-1.21,1.77-1.21a.63.63,0,0,1,.5.22.64.64,0,0,1,.2.47,1.45,1.45,0,0,1-.56,1,4.62,4.62,0,0,1-1.88.91m.08-.23a4.15,4.15,0,0,0,1.31-.89,1.48,1.48,0,0,0,.53-1,.31.31,0,0,0-.07-.2.24.24,0,0,0-.21-.1,1.19,1.19,0,0,0-.78.46,4.19,4.19,0,0,0-.78,1.72"/><path class="cls-1" d="M91.47,58.35a5,5,0,0,1,.83-1.1,1.11,1.11,0,0,1,.74-.37.55.55,0,0,1,.38.13.46.46,0,0,1,.15.36.55.55,0,0,1-.12.35.37.37,0,0,1-.31.17.39.39,0,0,1-.42-.3c0-.13-.08-.2-.14-.2s-.29.17-.54.51a8.12,8.12,0,0,0-.77,1.29l-.74,2.26h-.64c0-.08.12-.4.31-1,.5-1.9.75-2.94.75-3.13s0-.1-.07-.1-.2.09-.38.27a3.63,3.63,0,0,0-.48.57c-.11.15-.19.23-.25.23s-.09,0-.09-.08a2.48,2.48,0,0,1,.54-.74c.37-.42.68-.62,1-.62a.37.37,0,0,1,.32.13.36.36,0,0,1,.11.27,3.45,3.45,0,0,1-.06.51c0,.08,0,.27-.07.56"/><path class="cls-1" d="M97.59,61a.21.21,0,0,0,0,.13.17.17,0,0,0,.12.05,1,1,0,0,0,.45-.18,3.83,3.83,0,0,0,.55-.46q.11-.12.18-.12a.08.08,0,0,1,.09.09c0,.12-.17.3-.53.56a1.69,1.69,0,0,1-1,.37.7.7,0,0,1-.44-.11.35.35,0,0,1-.15-.28,9.16,9.16,0,0,1,.58-1.64,12,12,0,0,0,.74-2,.18.18,0,0,0,0-.14.11.11,0,0,0-.1-.05q-.22,0-.72.48c-.13.13-.22.19-.28.19a.07.07,0,0,1-.07-.08c0-.09.18-.28.55-.56a1.67,1.67,0,0,1,1-.42.43.43,0,0,1,.3.13.41.41,0,0,1,.13.29,1,1,0,0,1-.07.37c0,.12-.3.75-.78,1.88A16,16,0,0,0,97.59,61m1.69-6.69a.38.38,0,0,1,.28.12.4.4,0,0,1,.12.29.41.41,0,0,1-.12.3.38.38,0,0,1-.28.12.41.41,0,0,1-.42-.42.37.37,0,0,1,.13-.29.38.38,0,0,1,.29-.12"/><path class="cls-1" d="M104.54,57.2c0,.1-.12.38-.28.83a13.18,13.18,0,0,0-.77,2.67c0,.21.08.31.23.31s.64-.29,1.15-.89A.31.31,0,0,1,105,60c.07,0,.1,0,.1.07s-.22.34-.65.75a1.93,1.93,0,0,1-1.34.62.44.44,0,0,1-.35-.14.43.43,0,0,1-.13-.29,3,3,0,0,1,.23-1s.33-1,.95-2.83h-.49l-.34,0a.06.06,0,0,1-.07-.07.31.31,0,0,1,0-.18.73.73,0,0,1,.28,0,6.21,6.21,0,0,1,.69,0c.09-.28.19-.61.32-1l.2-.6a.1.1,0,0,1,.07,0,1.57,1.57,0,0,1,.37.05c.12,0,.17.07.17.11v0L104.6,57l.64,0a1.32,1.32,0,0,1,.33,0s0,0,0,0,0,.24-.08.24l-.38,0Z"/><path class="cls-1" d="M112.86,57c-.09.21-.29.79-.59,1.73l-.46,1.46a2.17,2.17,0,0,0-.14.67c0,.12.06.18.17.18a.64.64,0,0,0,.35-.17,2.61,2.61,0,0,0,.46-.43c.09-.11.16-.17.2-.17a.08.08,0,0,1,.09.09c0,.09-.19.3-.57.62a1.68,1.68,0,0,1-1,.48c-.2,0-.3-.13-.3-.41s0-.43,0-.73a2.21,2.21,0,0,1-1.69,1.1.65.65,0,0,1-.57-.28,1.16,1.16,0,0,1-.18-.63,4.05,4.05,0,0,1,1-2.32c.67-.87,1.3-1.3,1.89-1.3a.46.46,0,0,1,.38.16.89.89,0,0,1,.17.49,5.46,5.46,0,0,1,.3-.63l.32.06.14,0m-1.6.17a1.21,1.21,0,0,0-.74.44,3.9,3.9,0,0,0-.78,1.28,4.16,4.16,0,0,0-.34,1.41.87.87,0,0,0,.12.51.42.42,0,0,0,.36.17c.4,0,.81-.37,1.22-1.11a4.24,4.24,0,0,0,.62-2,.88.88,0,0,0-.13-.49.38.38,0,0,0-.33-.2"/><path class="cls-1" d="M119,60a1.44,1.44,0,0,1-.45,1.06,1.4,1.4,0,0,1-1,.45,1.13,1.13,0,0,1-.81-.28.75.75,0,0,1-.29-.51.44.44,0,0,1,.12-.3.4.4,0,0,1,.58-.05.39.39,0,0,1,.1.25.58.58,0,0,1,0,.2.58.58,0,0,0-.05.17.24.24,0,0,0,.12.21.68.68,0,0,0,.35.07.8.8,0,0,0,.61-.22.73.73,0,0,0,.22-.54,1.72,1.72,0,0,0-.41-.87,2.64,2.64,0,0,1-.67-1.44,1.37,1.37,0,0,1,.37-.9,1.17,1.17,0,0,1,.91-.42,1.09,1.09,0,0,1,.67.21.59.59,0,0,1,.29.48.41.41,0,0,1-.11.29.35.35,0,0,1-.26.12.27.27,0,0,1-.3-.31v-.28a.22.22,0,0,0-.14-.2.6.6,0,0,0-.29-.08.74.74,0,0,0-.44.16.59.59,0,0,0-.2.47,2.29,2.29,0,0,0,.59,1.07A2.11,2.11,0,0,1,119,60"/><path class="cls-1" d="M130.07,59.81c.09-.07.42-.41,1-1s1.08-1.21,1.56-1.8a12,12,0,0,0,.86-1.16,1.13,1.13,0,0,0,.15-.53c0-.32-.21-.5-.61-.52-.14,0-.2,0-.2-.1s.06-.11.17-.11h.47l.81,0h1.22c.12,0,.18,0,.18.1s-.09.09-.27.13a2,2,0,0,0-.88.38,32.25,32.25,0,0,0-2.28,2.6c-.48.57-1.19,1.35-2.14,2.35-.47.49-.79.85-1,1.07s-.3.32-.38.32-.07,0-.07-.07a.54.54,0,0,1,0-.2A50.48,50.48,0,0,0,130,55.52a.63.63,0,0,0-.21-.48.88.88,0,0,0-.61-.19c-.08,0-.13,0-.13-.1s.08-.11.23-.11l1.17,0c.34,0,.71,0,1.13-.06l.5,0c.07,0,.11,0,.11.09s0,.1-.14.11a1.28,1.28,0,0,0-.63.16,1.13,1.13,0,0,0-.32.52,16.59,16.59,0,0,0-.45,1.64c-.2.83-.39,1.73-.59,2.71"/><path class="cls-1" d="M138.3,61c0,.06,0,.11,0,.13a.13.13,0,0,0,.11.05.94.94,0,0,0,.45-.18,3.83,3.83,0,0,0,.55-.46q.11-.12.18-.12a.08.08,0,0,1,.09.09c0,.12-.17.3-.52.56a1.74,1.74,0,0,1-1,.37.7.7,0,0,1-.44-.11.34.34,0,0,1-.14-.28,8.69,8.69,0,0,1,.57-1.64,12,12,0,0,0,.74-2,.24.24,0,0,0,0-.14.14.14,0,0,0-.11-.05q-.23,0-.72.48c-.13.13-.22.19-.27.19a.07.07,0,0,1-.08-.08c0-.09.19-.28.55-.56a1.69,1.69,0,0,1,1-.42.42.42,0,0,1,.3.13.41.41,0,0,1,.13.29,1.19,1.19,0,0,1-.06.37l-.78,1.88A14.74,14.74,0,0,0,138.3,61M140,54.33a.38.38,0,0,1,.28.12.36.36,0,0,1,.12.29.37.37,0,0,1-.12.3.38.38,0,0,1-.28.12.38.38,0,0,1-.29-.12.41.41,0,0,1-.12-.3.41.41,0,0,1,.41-.41"/><path class="cls-1" d="M145,58.72a6.45,6.45,0,0,1,1-1.38,1.41,1.41,0,0,1,.9-.47.44.44,0,0,1,.38.18.63.63,0,0,1,.13.41,2.27,2.27,0,0,1-.09.62c-.05.21-.2.63-.43,1.27a8,8,0,0,0-.46,1.52c0,.12.05.17.15.17a.88.88,0,0,0,.42-.23,1.75,1.75,0,0,0,.42-.46c.09-.15.17-.23.23-.23s.09,0,.09.1-.18.39-.54.74a1.55,1.55,0,0,1-1,.51c-.32,0-.47-.13-.47-.4a11.41,11.41,0,0,1,.76-2.42,3.56,3.56,0,0,0,.3-1.16.32.32,0,0,0-.05-.18.15.15,0,0,0-.13-.06c-.11,0-.3.14-.59.4a5.81,5.81,0,0,0-1,1.42c-.36.68-.66,1.3-.9,1.87-.14.35-.23.53-.28.53-.34,0-.51,0-.51-.14l0,0,.88-2.55a4.6,4.6,0,0,0,.34-1.3c0-.1,0-.16-.14-.16s-.23.09-.43.26a4,4,0,0,0-.46.49c-.09.12-.17.18-.22.18a.07.07,0,0,1-.08-.08c0-.12.19-.35.57-.71a1.59,1.59,0,0,1,1.08-.55.3.3,0,0,1,.26.12.43.43,0,0,1,.09.25,13.16,13.16,0,0,1-.27,1.49"/><path class="cls-1" d="M154.14,56.89a.73.73,0,0,1,.48.19.58.58,0,0,1,.22.46.4.4,0,0,1-.11.29.32.32,0,0,1-.23.1.27.27,0,0,1-.22-.09.74.74,0,0,1-.14-.32.6.6,0,0,0-.13-.29.25.25,0,0,0-.15,0c-.21,0-.45.16-.73.47a3.57,3.57,0,0,0-.71,1.29,4.61,4.61,0,0,0-.27,1.39,1.22,1.22,0,0,0,.14.64.49.49,0,0,0,.43.21,1.1,1.1,0,0,0,.67-.3,3.15,3.15,0,0,0,.61-.66c.08-.12.15-.18.2-.18a.08.08,0,0,1,.09.09c0,.12-.19.38-.57.76a1.78,1.78,0,0,1-1.32.58,1.09,1.09,0,0,1-.78-.29,1.06,1.06,0,0,1-.29-.77,3.22,3.22,0,0,1,.52-1.68A4.55,4.55,0,0,1,153,57.38a2,2,0,0,1,1.16-.49"/><path class="cls-1" d="M158.92,61c0,.06,0,.11,0,.13a.13.13,0,0,0,.11.05.94.94,0,0,0,.45-.18,3.83,3.83,0,0,0,.55-.46q.1-.12.18-.12a.08.08,0,0,1,.09.09c0,.12-.17.3-.52.56a1.72,1.72,0,0,1-1,.37.7.7,0,0,1-.44-.11.37.37,0,0,1-.14-.28,8.69,8.69,0,0,1,.57-1.64,11.07,11.07,0,0,0,.74-2,.24.24,0,0,0,0-.14.14.14,0,0,0-.11-.05q-.23,0-.72.48c-.13.13-.22.19-.27.19a.07.07,0,0,1-.08-.08c0-.09.19-.28.55-.56a1.69,1.69,0,0,1,1-.42.42.42,0,0,1,.3.13.41.41,0,0,1,.13.29,1.19,1.19,0,0,1-.06.37l-.78,1.88a14.74,14.74,0,0,0-.56,1.51m1.69-6.69a.41.41,0,0,1,.41.41.41.41,0,0,1-.12.3.4.4,0,0,1-.29.12.38.38,0,0,1-.29-.12.41.41,0,0,1-.12-.3.41.41,0,0,1,.41-.41"/><path class="cls-1" d="M165.87,57.2c0,.1-.12.38-.28.83a13.18,13.18,0,0,0-.77,2.67c0,.21.08.31.24.31s.64-.29,1.15-.89a.26.26,0,0,1,.17-.11c.06,0,.09,0,.09.07s-.21.34-.64.75a2,2,0,0,1-1.34.62.46.46,0,0,1-.36-.14A.42.42,0,0,1,164,61a2.94,2.94,0,0,1,.22-1l1-2.83h-.49l-.35,0a.06.06,0,0,1-.07-.07.31.31,0,0,1,0-.18.79.79,0,0,1,.28,0,6.21,6.21,0,0,1,.69,0c.09-.28.2-.61.33-1l.2-.6a.07.07,0,0,1,.06,0,1.5,1.5,0,0,1,.37.05c.12,0,.18.07.18.11l0,0L165.93,57l.64,0a1.32,1.32,0,0,1,.33,0s0,0,0,0,0,.24-.08.24l-.39,0Z"/><path class="cls-1" d="M179.5,54.38a2.55,2.55,0,0,1,2,.79,2.89,2.89,0,0,1,.71,2A4.34,4.34,0,0,1,181,60.11a3.51,3.51,0,0,1-2.68,1.34,2.4,2.4,0,0,1-2-.89,3.16,3.16,0,0,1-.73-2.08,4,4,0,0,1,.51-1.9A4.63,4.63,0,0,1,177.52,55a3.33,3.33,0,0,1,2-.63m.24.25a2.24,2.24,0,0,0-1.33.53,4.07,4.07,0,0,0-1.19,1.71,6.15,6.15,0,0,0-.5,2.4,2.52,2.52,0,0,0,.36,1.37,1.16,1.16,0,0,0,1,.56,2,2,0,0,0,1.41-.61,4.83,4.83,0,0,0,1.12-1.84,6.38,6.38,0,0,0,.47-2.23,2.66,2.66,0,0,0-.34-1.28,1.12,1.12,0,0,0-1-.61"/><path class="cls-1" d="M185.73,61.41c.49-1.33.82-2.27,1-2.84a5.88,5.88,0,0,0,.26-1,.22.22,0,0,0,0-.13.11.11,0,0,0-.1,0c-.15,0-.46.32-.92,1-.09.12-.15.19-.2.19s-.1,0-.1-.08a2.83,2.83,0,0,1,.56-.81c.37-.46.69-.69,1-.69a.44.44,0,0,1,.34.12.53.53,0,0,1,.12.37,5.76,5.76,0,0,1-.38,1.46,5.94,5.94,0,0,0,.31-.51c.59-1,1.14-1.53,1.63-1.53a.55.55,0,0,1,.48.21.9.9,0,0,1,.15.51,6.64,6.64,0,0,1-.26,1.32,6.29,6.29,0,0,1,1.13-1.65,1.29,1.29,0,0,1,.83-.39A.62.62,0,0,1,192,57a.57.57,0,0,1,.18.44,12.73,12.73,0,0,1-.8,2.76,4.46,4.46,0,0,0-.22.71.16.16,0,0,0,0,.11.12.12,0,0,0,.09,0,1.33,1.33,0,0,0,.56-.34,3.71,3.71,0,0,0,.63-.62c.07-.1.13-.15.19-.15s.09,0,.09.07-.23.4-.69.81a2,2,0,0,1-1.17.61.38.38,0,0,1-.28-.12.5.5,0,0,1-.11-.32,3,3,0,0,1,.24-.91,10.85,10.85,0,0,0,.76-2.67.34.34,0,0,0-.05-.22.17.17,0,0,0-.14-.06c-.32,0-.72.4-1.2,1.22a18.24,18.24,0,0,0-1.37,3,2.36,2.36,0,0,1-.38,0,1,1,0,0,1-.25,0,16.64,16.64,0,0,0,1.07-3.59,1.11,1.11,0,0,0-.07-.46.21.21,0,0,0-.2-.15c-.26,0-.62.4-1.1,1.2a17.43,17.43,0,0,0-1.38,3,.87.87,0,0,1-.2,0h-.13l-.34,0"/><path class="cls-1" d="M197.77,58.72a6.45,6.45,0,0,1,1-1.38,1.41,1.41,0,0,1,.9-.47.44.44,0,0,1,.38.18.63.63,0,0,1,.13.41,2.27,2.27,0,0,1-.09.62c0,.21-.2.63-.43,1.27a8,8,0,0,0-.46,1.52c0,.12,0,.17.15.17a.88.88,0,0,0,.42-.23,1.75,1.75,0,0,0,.42-.46c.09-.15.17-.23.23-.23s.09,0,.09.1-.18.39-.54.74a1.55,1.55,0,0,1-1,.51c-.32,0-.48-.13-.48-.4a11.74,11.74,0,0,1,.77-2.42,3.56,3.56,0,0,0,.3-1.16.32.32,0,0,0,0-.18.14.14,0,0,0-.13-.06c-.11,0-.31.14-.59.4a5.81,5.81,0,0,0-1,1.42c-.36.68-.66,1.3-.9,1.87-.14.35-.23.53-.28.53-.34,0-.51,0-.51-.14l0,0,.88-2.55a4.6,4.6,0,0,0,.34-1.3c0-.1-.05-.16-.14-.16s-.23.09-.43.26a4,4,0,0,0-.46.49c-.09.12-.17.18-.22.18a.07.07,0,0,1-.08-.08c0-.12.19-.35.57-.71a1.59,1.59,0,0,1,1.09-.55A.29.29,0,0,1,198,57a.43.43,0,0,1,.09.25,13.16,13.16,0,0,1-.27,1.49"/><path class="cls-1" d="M204.81,61a.2.2,0,0,0,0,.13.16.16,0,0,0,.11.05.94.94,0,0,0,.45-.18,3.36,3.36,0,0,0,.55-.46q.12-.12.18-.12c.07,0,.1,0,.1.09s-.18.3-.53.56a1.69,1.69,0,0,1-1,.37.68.68,0,0,1-.44-.11.35.35,0,0,1-.15-.28,8.32,8.32,0,0,1,.58-1.64,12,12,0,0,0,.74-2,.23.23,0,0,0,0-.14.13.13,0,0,0-.11-.05q-.23,0-.72.48c-.13.13-.22.19-.27.19s-.07,0-.07-.08.18-.28.55-.56a1.67,1.67,0,0,1,1-.42.46.46,0,0,1,.31.13.45.45,0,0,1,.13.29,1,1,0,0,1-.07.37c0,.12-.3.75-.78,1.88-.37,1-.56,1.45-.56,1.51m1.69-6.69a.38.38,0,0,1,.29.12.4.4,0,0,1,.12.29.41.41,0,0,1-.12.3.38.38,0,0,1-.29.12.4.4,0,0,1-.29-.12.41.41,0,0,1-.12-.3.4.4,0,0,1,.12-.29.42.42,0,0,1,.29-.12"/><path class="cls-1" d="M214.09,57c-.09.21-.29.79-.59,1.73L213,60.16a2.17,2.17,0,0,0-.14.67c0,.12.06.18.17.18a.64.64,0,0,0,.35-.17,2.27,2.27,0,0,0,.45-.43c.1-.11.17-.17.21-.17a.08.08,0,0,1,.09.09c0,.09-.19.3-.57.62a1.68,1.68,0,0,1-1,.48c-.21,0-.31-.13-.31-.41s0-.43,0-.73a2.21,2.21,0,0,1-1.69,1.1.65.65,0,0,1-.57-.28,1.16,1.16,0,0,1-.18-.63,4.05,4.05,0,0,1,1-2.32c.67-.87,1.3-1.3,1.89-1.3a.48.48,0,0,1,.38.16.89.89,0,0,1,.17.49,5.46,5.46,0,0,1,.3-.63l.32.06.14,0m-1.6.17a1.21,1.21,0,0,0-.74.44,3.9,3.9,0,0,0-.78,1.28,4.16,4.16,0,0,0-.34,1.41.87.87,0,0,0,.12.51.42.42,0,0,0,.36.17c.4,0,.81-.37,1.22-1.11a4.24,4.24,0,0,0,.62-2,.88.88,0,0,0-.13-.49.38.38,0,0,0-.33-.2"/><rect class="cls-1" x="124.53" y="35.26" width="1.01" height="8.41"/><path class="cls-1" d="M40.13,67a11.73,11.73,0,0,1-.54-3.7c0-4.69.78-11.66,5.3-15.92,4.26-3.95,6.62-8.25,6.59-11.41a6.4,6.4,0,0,0,0-.77A4.53,4.53,0,0,0,49,31.63l-1.3-.69,0,0c-1.9-1-3.68-1.9-4.93-3.89-1.78-2.06-2-9.74-2-9.74a94.44,94.44,0,0,1,.5-15.12s1.21,7,9.11,12.35c5.54,3.24,9,8.16,9.37,13.53q0,.48,0,1c0,6.39-4.23,12.89-12,19a1.87,1.87,0,0,0-.24.21c1.16-.88,4.65-3.17,4.65-3.17a18.77,18.77,0,0,0,6.32-6.75,50.39,50.39,0,0,0,3.66-14.54,55.85,55.85,0,0,1,2.07,15,35.45,35.45,0,0,1-1,9.2,11.72,11.72,0,0,1-4.11,6.67c-.67.61-5.66,5.07-12.37,5.5a5.16,5.16,0,0,0-3.68,2C42,62.86,40.13,67,40.13,67"/><path class="cls-1" d="M38.13,65.4c-2-.43-25.39-6-31.77-33.05,0,0,6.92-16,29.48-23.09.18-.34.34-.69.49-1C12.7,15.44,5.48,32.19,5.48,32.19,12.37,61.4,38.41,66.32,38.41,66.32,38.34,66,38.24,65.73,38.13,65.4Z"/><path class="cls-1" d="M21.09,53.91l.17.15c.15.13.36.31.64.53a22.38,22.38,0,0,0,2.38,1.63,18,18,0,0,0,7.95,2.63,6.51,6.51,0,0,1,4.87,2.9,11.79,11.79,0,0,1,.7,1.09c0-4.35-.93-10.59-4.71-14.1a8,8,0,0,1,1.36,2.61L33.18,52l-.08-.09-.29-.29c-.26-.27-.66-.65-1.22-1.14a42.68,42.68,0,0,0-5.42-3.92,18.3,18.3,0,0,1-7.28-8.3A26.74,26.74,0,0,1,17,31.36a67.93,67.93,0,0,0-.52,8,33.08,33.08,0,0,0,1,8.62A10.15,10.15,0,0,0,21,53.79l.1.09,0,0"/><path class="cls-1" d="M29.26,17.06c-5.1,3-8.13,7.42-8.45,12.1,0,.31,0,.63,0,.94,0,4.61,2.29,9.24,7.41,13.92.34.32,1.2,1,2.17,1.83-2.59-3.11-4.07-6.29-4.08-9.12a8.88,8.88,0,0,1,0-.9,5.69,5.69,0,0,1,3-4.4l1.31-.7c1.91-1,3.3-1.74,4.29-3.31s1.66-4.11,1.72-8.78c.05-3.57.07-6.73.07-9.36V9.16a18.5,18.5,0,0,1-7.46,7.9"/><path class="cls-1" d="M38.41,66.32C37.79,64,36,59.83,32.18,59.59c-6.58-.41-11.6-5.15-11.65-5.19C13.27,49.28,16,31,17.2,24.92c.17,10.75,3,17.1,9.36,21a33,33,0,0,1,7.18,5.59c-.87-3.12-5-6-6.05-7-5.57-5.09-8-10.25-7.61-15.46.33-5,3.54-9.6,8.81-12.68A17.51,17.51,0,0,0,37.44,4.82c0,3.14,0,7.92,0,13.83-.13,9.45-2.62,10.76-6.4,12.73l-1.31.7a4.92,4.92,0,0,0-2.62,3.84c-.43,3.47,2,8,6.51,12.25,5.36,5,5.13,14.62,4.84,18.15"/><path class="cls-1" d="M40.41,65.32c-.22-4.4.08-12.78,5-17.38,4.7-4.39,7.24-9.19,6.79-12.85A5.31,5.31,0,0,0,49.39,31l-1.32-.7,0,0c-3.84-2-6.37-3.33-6.5-13-.07-5.22-.07-9.53-.06-12.58A18.33,18.33,0,0,0,50,15.18c5.38,3.15,8.65,7.86,9,12.92.43,6.29-3.6,13-11.64,19.28a17.73,17.73,0,0,0-2.63,3.3,2.56,2.56,0,0,0-.19,1.4,2.11,2.11,0,0,1,.69-.89,42.54,42.54,0,0,1,7.42-5.51c6.24-3.88,9.2-9.85,9.71-19.77,1.22,7.36,3,23.39-3.7,28.09h0l0,0c-.54.5-5.46,4.91-11.91,5.31-3.66.23-5.5,3.82-6.28,6"/></svg>