<svg xmlns="http://www.w3.org/2000/svg" xmlns:xlink="http://www.w3.org/1999/xlink" width="300" height="300" viewBox="0 0 300 300">
  <defs>
    <clipPath id="clip-Artboard_3">
      <rect width="300" height="300"/>
    </clipPath>
  </defs>
  <g id="Artboard_3" data-name="Artboard – 3" clip-path="url(#clip-Artboard_3)">
    <rect width="300" height="300" fill="#fff"/>
    <g id="Group_1356" data-name="Group 1356" transform="translate(-625.001 -2249.217)">
      <path id="Path_1067" data-name="Path 1067" d="M757.884,309.584,740.3,232.395c10.14-9.549,17.432-16.461,17.432-16.461a10.462,10.462,0,0,0,1.854-2.525l.005.005,9.965-16.494-.132-.132a5.5,5.5,0,0,0-7.4-7.4l-17.033,7.647c-.4.151-1.227.551-1.227.551l0,0a10.45,10.45,0,0,0-2.525,1.854l-1.19,1.189s-6.127,6-14.887,14.644l-79.755-18.169c-9.747-2.208-9.653,1.152-12.292,3.79s-.416,3.6-.416,3.6l66.854,36.184c-13.727,13.715-26.955,27.128-32.349,33.186-10.354-3.008-24.056-6.983-26.588-7.681-4.164-1.149-6.017-2.75-9.587.024s-1.013,4.2-1.013,4.2l28.441,18.068c-2.75,4.529-3.748,8.129-2.3,9.58,1.519,1.519,5.391.357,10.219-2.691l18.193,29.6s1.428,2.558,4.2-1.013,1.172-5.423.024-9.587c-.715-2.59-4.858-16.87-7.887-27.3,4.821-3.873,18.988-16.9,33.867-30.762l35.709,65.976s.967,2.222,3.6-.416S760.093,319.33,757.884,309.584Z" transform="translate(5.867 2087.466)" fill="#fff" stroke="#7eccff" stroke-linecap="square" stroke-linejoin="round" stroke-width="6"/>
      <circle id="Ellipse_517" data-name="Ellipse 517" cx="92.143" cy="92.143" r="92.143" transform="translate(730.714 2338.555)" fill="#fff" stroke="#7eccff" stroke-linecap="round" stroke-linejoin="round" stroke-width="8"/>
      <path id="Path_1068" data-name="Path 1068" d="M841.544,313.306s7.581,7.581,15.746,7.581,12.83-3.5,17.5,0,11.664,2.916,5.832,8.165-14.58,7.581-14.58,7.581l-3.849,6.415a39.55,39.55,0,0,1,8.514,4.082l4.666,2.916v5.832l4.082,2.916-1.166-9.331V344.8l4.549-8.748h8.281v7l5.832.583,5.249,9.331,2.333,5.832h-8.165l-2.332,2.916v9.914h-14v2.916l-3.5,3.5-3.5,2.332v4.083l-5.249,5.064-1.166,3.1v7.123l-5.4-10.222H847.376l-2.916,10.222,2.333,7.457,8.164-4.666,6.268.583-5.1,4.083,5.1,4.666,2.481,4.666H891.7l4.666,2.859,3.5,8.8,4.666,4.082h11.081l2.916,6.478-3.5,6.353-1.166,5.832-9.914,4.083-8.748,8.748-4.082,8.748.583,5.249s-14.579,2.916-16.329,2.916-.583-8.165-.583-8.165l5.249-13.413v-5.832l-11.081-4.083-4.082-10.435-1.166-6.478,4.082-3.5.583-5.4h-7.146l-5.1-3.985-4.083-4.026-4.082-1.749h-6.415l-5.249-1.75-2.916-4.083-3.5-8.04V389.519l-7.581-4.482-3.5-5.832-2.333-10.221v-4.359l5.249-4.665,2.333-6.415-3.5-6.415-1.167-7V334.3l-2.916-1.166v-2.916S823.465,312.722,841.544,313.306Z" transform="translate(-62.279 2042.161)" fill="#7eccff"/>
      <path id="Path_1069" data-name="Path 1069" d="M976.876,298.642l5.249,9.914V324.3l-2.625,4.666,11.372,9.331,2.916-2.332,2.916-7.581,8.748-3.5,4.666,1.166v6.415l4.083,3.5-4.666,2.332-1.75,5.832v3.5l6.415,4.666,3.11.777v4.666h3.5v4.277l-3.11,3.3-2.138,2.527,1.556,4.471,2.333,3.5h4.083l2.332-3.111,2.722-1.555v3.693l2.333,5.054-4.082.777h-4.472l-5.637,3.111s.583,2.138-1.361,6.8-5.054,11.275-4.471,14.968a57.911,57.911,0,0,1,.583,7.776l2.527,3.11,1.361,3.5,1.166,2.138,1.555,3.888,2.138.972s19.245-24.883,12.247-64.151S993.983,307.778,976.876,298.642Z" transform="translate(-120.629 2047.491)" fill="#7eccff"/>
    </g>
  </g>
</svg>
