<svg xmlns="http://www.w3.org/2000/svg" xmlns:xlink="http://www.w3.org/1999/xlink" width="300" height="300" viewBox="0 0 300 300">
  <defs>
    <clipPath id="clip-Artboard_2">
      <rect width="300" height="300"/>
    </clipPath>
  </defs>
  <g id="Artboard_2" data-name="Artboard – 2" clip-path="url(#clip-Artboard_2)">
    <rect width="300" height="300" fill="#fff"/>
    <g id="Group_1357" data-name="Group 1357" transform="translate(-1000.001 -4282.888)">
      <g id="Group_1359" data-name="Group 1359" transform="translate(1010.001 4323.888)">
        <rect id="Rectangle_2530" data-name="Rectangle 2530" width="67.137" height="61.169" transform="translate(13.429 64.32)" fill="#fff"/>
        <path id="Path_1070" data-name="Path 1070" d="M675.809,858.958V795.979H850.987v126.87H675.809V877.06" transform="translate(-570.988 -795.978)" fill="#fff" stroke="#7eccff" stroke-linecap="round" stroke-linejoin="round" stroke-width="8"/>
        <circle id="Ellipse_518" data-name="Ellipse 518" cx="20.435" cy="20.435" r="20.435" transform="translate(36.087 13.172)" fill="#fff" stroke="#7eccff" stroke-linecap="round" stroke-linejoin="round" stroke-width="8"/>
        <line id="Line_21" data-name="Line 21" y1="0.594" x2="34.162" transform="translate(38.223 63.584)" fill="#fff" stroke="#7eccff" stroke-linecap="round" stroke-linejoin="round" stroke-width="8"/>
        <line id="Line_22" data-name="Line 22" x2="0.452" y2="40.453" transform="translate(77.663 81.081)" fill="none" stroke="#7eccff" stroke-linecap="round" stroke-linejoin="round" stroke-width="8"/>
        <path id="Path_1071" data-name="Path 1071" d="M620.746,905.255h55.329A8.749,8.749,0,0,1,684.824,914h0a8.749,8.749,0,0,1-8.749,8.749H625.627" transform="translate(-547.964 -841.671)" fill="#fff" stroke="#7eccff" stroke-linecap="round" stroke-linejoin="round" stroke-width="8"/>
        <path id="Path_1072" data-name="Path 1072" d="M545.608,1011.217l-4.532,81.583a8.748,8.748,0,0,0,8.23,9.238h0a8.748,8.748,0,0,0,9.239-8.23l5.31-83.231H575.56l4.808,83.323a8.748,8.748,0,0,0,9.238,8.23h0a8.747,8.747,0,0,0,8.23-9.238l-5.026-87.106" transform="translate(-514.645 -883.707)" fill="#fff" stroke="#7eccff" stroke-linecap="round" stroke-linejoin="round" stroke-width="8"/>
        <path id="Path_1073" data-name="Path 1073" d="M533.882,906.277h0a45.581,45.581,0,0,0-20.617,4.454c-7.318,3.7-11.775,8.025-16.192,17.513-7.829,16.817,19.372,40.725,19.372,40.725" transform="translate(-495.657 -842.099)" fill="#fff" stroke="#7eccff" stroke-linecap="round" stroke-linejoin="round" stroke-width="8"/>
        <path id="Path_1074" data-name="Path 1074" d="M539.807,939.619s-33.815,5.857-.336,27.892a9.31,9.31,0,0,1,4.148,7.8,9.41,9.41,0,0,1-15.011,7.56" transform="translate(-507.793 -856.04)" fill="rgba(0,0,0,0)" stroke="#7eccff" stroke-linecap="round" stroke-linejoin="round" stroke-width="8"/>
        <g id="Group_1119" data-name="Group 1119" transform="translate(121.173 126.87)">
          <path id="Path_1075" data-name="Path 1075" d="M946.415,1014.021V1099.2c0,3.515-4.412,6.39-9.8,6.39h0c-5.392,0-9.8-2.876-9.8-6.39v-85.177" transform="translate(-803.942 -1014.021)" fill="#fff" stroke="#7eccff" stroke-linecap="round" stroke-linejoin="round" stroke-width="8"/>
          <path id="Path_1076" data-name="Path 1076" d="M722.581,1017.134V1100.5c0,3.515-4.2,6.39-9.334,6.39h0c-5.134,0-9.334-2.875-9.334-6.39v-83.366" transform="translate(-703.913 -1015.323)" fill="#fff" stroke="#7eccff" stroke-linecap="round" stroke-linejoin="round" stroke-width="8"/>
        </g>
        <g id="Group_1120" data-name="Group 1120" transform="translate(141.874 40.235)">
          <path id="Path_1077" data-name="Path 1077" d="M759.169,865.128v45.618H748.611V873.6h-9.124v-8.472Z" transform="translate(-739.488 -865.128)" fill="#7eccff"/>
          <path id="Path_1078" data-name="Path 1078" d="M820.091,896.409c0,8.081-5.93,15.119-18.964,15.119-6.32,0-12.968-1.759-17.4-4.888l4.171-8.082a21.948,21.948,0,0,0,12.968,4.106c5.279,0,8.538-2.216,8.538-5.93,0-3.584-2.347-5.93-10.623-5.93H787.116l2.347-25.676h27.826V873.6H798.26l-.717,8.667h3.715C814.747,882.267,820.091,888.328,820.091,896.409Z" transform="translate(-757.987 -865.128)" fill="#7eccff"/>
          <path id="Path_1079" data-name="Path 1079" d="M853.054,888.744a6.322,6.322,0,0,1,12.643,0,6.322,6.322,0,1,1-12.643,0Zm0,23.4a6.322,6.322,0,0,1,12.643,0,6.322,6.322,0,1,1-12.643,0Z" transform="translate(-786.975 -872.387)" fill="#7eccff"/>
          <path id="Path_1080" data-name="Path 1080" d="M899.054,865.128v45.618H888.5V873.6h-9.123v-8.472Z" transform="translate(-797.98 -865.128)" fill="#7eccff"/>
        </g>
        <line id="Line_23" data-name="Line 23" y1="27.892" x2="0.336" transform="translate(31.678 83.579)" fill="none" stroke="#7eccff" stroke-linecap="round" stroke-linejoin="round" stroke-width="8"/>
      </g>
    </g>
  </g>
</svg>
