<svg xmlns="http://www.w3.org/2000/svg" width="922.999" height="1017.681" viewBox="0 0 922.999 1017.681"><g transform="translate(-24.573 -15.374)"><path d="M61.261,1033.055s-11.616-38.707-8.61-58.138c.213-73.69,12.275-182.984,83.328-249.907,66.864-62.094,103.826-129.559,103.476-179.2a93.48,93.48,0,0,0-.717-12.043c-3.3-25.035-15.746-43.38-38.067-55.83-6.981-3.84-13.768-7.388-20.4-10.879l-.543-.271c-29.845-15.63-57.711-29.883-77.452-61.085C74.332,373.353,71.229,252.812,71.229,252.812,63.2,150.4,79.16,15.374,79.16,15.374S98.029,125.25,222.042,209.218c86.993,50.924,141.408,128.182,147.109,212.5q.523,7.5.524,15.087c-.194,100.238-66.36,202.241-187.988,297.844a42.8,42.8,0,0,0-3.878,3.394c18.267-13.807,73.07-49.8,73.07-49.8,42.391-27.149,76.657-64.5,99.113-105.939,50.788-121.88,57.556-228.284,57.556-228.284s36.283,123.819,32.462,235.5c-.019,50.129-4.247,100.49-16.289,144.375-12,43.555-31.842,81.35-64.537,104.737-10.569,9.522-88.8,79.6-194.251,86.431-24.686,1.571-43.051,14.137-57.73,31.28-16.444,11.887-45.94,76.715-45.94,76.715" transform="translate(507.281 0)" fill="rgba(0,43,102,0.06)"/><path d="M537.069,917.7c-31.512-6.71-398.528-93.49-498.786-518.857,0,0,108.635-251.691,462.833-362.5,2.812-5.391,5.41-10.763,7.738-16.057C137.94,133.42,24.573,396.4,24.573,396.4,132.645,854.924,541.529,932.086,541.529,932.086,540.327,927.7,538.853,922.836,537.069,917.7Z" transform="translate(0 90.342)" fill="rgba(0,43,102,0.06)"/><path d="M106.457,393.1c.562.543,1.435,1.319,2.579,2.327,2.308,2,5.721,4.848,10.084,8.319a353.1,353.1,0,0,0,37.369,25.617c31.706,18.888,75.649,38.261,124.73,41.247,34.537,2.114,59.728,22.456,76.5,45.591a170.92,170.92,0,0,1,10.937,17.046c-.6-68.183-14.505-166.171-73.826-221.4,9.386,12.624,17.162,26.354,21.331,41.073L296.17,363.589s-.31-.388-1.26-1.416c-.931-1.008-2.4-2.6-4.46-4.635-4.072-4.111-10.375-10.181-19.2-17.821-17.647-15.281-45.339-36.845-85.093-61.551-51.447-31.978-89.437-74.5-114.239-130.276C57.7,116.048,47.718,80,41.493,39c-4.577,38.823-8.048,82.727-8.048,126.417-.019,47.821,4.208,95.371,15.359,135.319,11.151,40.084,29.127,72,55.462,90.484l1.551,1.319c.136.116.33.31.64.562" transform="translate(163.175 434.588)" fill="rgba(0,43,102,0.06)"/><path d="M170.067,145.068C89.938,192.152,42.408,261.557,37.444,335c-.31,4.926-.485,9.851-.485,14.757C37,422.143,72.834,494.786,153.215,568.341c5.372,4.964,18.869,15.242,34.072,28.7C146.66,548.154,123.467,498.3,123.2,453.869a119.118,119.118,0,0,1,.873-14.234c3.568-29.864,20.5-54.628,47.045-69.055,7.175-3.917,14.04-7.524,20.672-10.976,29.9-15.611,51.8-27.362,67.349-51.874,15.63-24.57,26.024-64.615,26.955-137.936.756-56,1.028-105.61,1.028-146.954v-1.8c-20.847,42.74-56.528,88.583-117.051,124.032" transform="translate(227.805 104.136)" fill="rgba(0,43,102,0.06)"/><path d="M389.332,982.959c-9.754-35.682-37.563-101.906-97.853-105.648-103.36-6.4-182.15-80.73-182.907-81.486C-5.317,715.522,38.1,428.712,56.311,333.012c2.7,168.751,47.511,268.465,146.973,330.384,80.555,50.09,112.707,87.75,112.707,87.75-13.672-48.965-78.946-94.905-95-109.566-87.4-79.9-125.021-160.974-119.514-242.732,5.294-78.053,55.694-150.658,138.344-199.138,90.6-53.154,122.908-129.637,134.271-182.189.388,49.217.485,124.381-.776,217.1C371.3,383.024,332.087,403.522,272.766,434.53c-6.632,3.452-13.4,7.02-20.478,10.879-23.561,12.973-37.815,33.82-41.111,60.329-6.787,54.473,31.415,126.34,102.158,192.331,84.143,78.616,80.536,229.487,76,284.89" transform="translate(152.197 39.488)" fill="rgba(0,43,102,0.06)"/><path d="M53.628,969.148c-3.549-69.133,1.3-200.67,78.635-272.867,73.845-68.9,113.7-144.278,106.56-201.64-3.568-28.545-18.869-51-44.253-64.964-7.156-3.917-14.021-7.5-20.691-11l-.5-.271c-60.213-31.454-99.967-52.262-101.983-203.4-1.105-81.912-1.183-149.591-.97-197.587,16.58,53,53.212,117.5,133.5,164.639C288.312,231.509,339.7,305.452,345.053,384.9c6.71,98.725-56.567,203.346-182.868,302.615-9.735,7.679-36.4,41.771-41.286,51.758-4.887,9.968-2.967,22.068-2.967,22.068s1.978-6.5,10.918-14c8.92-7.5,34.751-35.6,116.469-86.431C343.211,599.98,389.694,506.122,397.7,350.422c19.121,115.558,46.735,367.171-58.041,441.036l-.194.155-.252.233c-8.494,7.873-85.83,77.2-187.037,83.464-57.381,3.568-86.314,60-98.551,93.839" transform="translate(519.278 37.63)" fill="rgba(0,43,102,0.06)"/></g></svg>